# xmcd CD database file
#
# Track frame offsets:
#	150
#	13067
#	30325
#	47782
#	66070
#	86000
#	104805
#	115987
#	128597
#	145585
#	162750
#	187277
#
# Disc length: 2726 seconds
#
# Revision: 4
# Processed by: cddbd v1.5.2PL0 Copyright (c) Steve Scherf et al.
# Submitted via: CDex 1.72
#
DISCID=a20aa40c
DTITLE=Williams, Lucinda (USA-92-Sweet Old World-cty) - Sweet Old World
DYEAR=1992
DGENRE=Country
TTITLE0=Six Blocks Away
TTITLE1=Something About What Happens When We Talk
TTITLE2=He Never Got Enough Love
TTITLE3=Sweet Old World
TTITLE4=Little Angel, Little Brother
TTITLE5=Pineola
TTITLE6=Lines Around Your Eyes
TTITLE7=Prove My Love
TTITLE8=Sidewalks Of The City
TTITLE9=Memphis Pearl
TTITLE10=Hot Blood
TTITLE11=Which Will
EXTD=YEAR: 1992
EXTT0=
EXTT1=
EXTT2=
EXTT3=
EXTT4=
EXTT5=
EXTT6=
EXTT7=
EXTT8=
EXTT9=
EXTT10=
EXTT11=
PLAYORDER=
